<svg width="30" height="26" viewBox="0 0 30 26" fill="none" xmlns="http://www.w3.org/2000/svg">
<path d="M29.5924 0.0270721L25.4017 1.88766L17.8488 10.157L21.7485 12.1751L8.73047 22.3246L13.7222 20.1342C14.5111 19.7872 15.4256 19.9054 16.101 20.4419L17.7181 21.7241C17.9868 21.9382 18.3862 21.8275 18.5119 21.5051L19.8479 17.9832C20.055 17.4369 20.4593 16.9914 20.9819 16.7305L24.5686 14.9413C24.958 14.7469 25.2538 14.4073 25.3944 13.9963L29.9843 0.383931C30.0509 0.187043 29.8956 0 29.7107 0C29.6713 0 29.6318 0.00738333 29.5924 0.0270721Z" fill="white"/>
<path d="M5.34636 10.7977C4.91743 10.9872 4.58958 11.3514 4.44661 11.7993L0.0144074 25.6209C-0.0620098 25.8596 0.179567 26.0762 0.408819 25.9753L3.007 24.8358L11.1442 15.9266L7.24446 13.9085L19.0349 4.71875L5.34636 10.7977Z" fill="white"/>
</svg>
