<svg width="20" height="20" viewBox="0 0 20 20" fill="none" xmlns="http://www.w3.org/2000/svg">
<rect width="20" height="20" fill="white"/>
<path d="M18.3366 16.0159C18.3366 17.2946 17.3005 18.3307 16.0218 18.3307H3.98474C2.7065 18.3307 1.66992 17.2946 1.66992 16.0159V3.97888C1.66992 2.70017 2.7065 1.66406 3.98474 1.66406H16.0218C17.3005 1.66406 18.3366 2.70017 18.3366 3.97888V16.0159Z" fill="#0078D4"/>
<path d="M4.45312 7.68215H6.76794V15.5525H4.45312V7.68215ZM5.60359 6.75622H5.59063C4.89988 6.75622 4.45312 6.24141 4.45312 5.59835C4.45312 4.94141 4.91377 4.44141 5.61701 4.44141C6.32118 4.44141 6.75498 4.94141 6.76794 5.59835C6.76794 6.24094 6.32118 6.75622 5.60359 6.75622ZM15.5642 15.5525H13.2494V11.34C13.2494 10.3224 12.6823 9.62798 11.7716 9.62798C11.0767 9.62798 10.7008 10.0965 10.5184 10.5493C10.4517 10.7113 10.4716 11.1595 10.4716 11.3859V15.5525H8.15683V7.68215H10.4716V8.89326C10.8054 8.37659 11.3281 7.68215 12.6652 7.68215C14.3216 7.68215 15.5638 8.72381 15.5638 11.0497L15.5642 15.5525Z" fill="white"/>
</svg>
